<?xml version="1.0" encoding="UTF-8" standalone="no"?>
<!DOCTYPE svg PUBLIC "-//W3C//DTD SVG 1.1//EN" "http://www.w3.org/Graphics/SVG/1.1/DTD/svg11.dtd">
<svg width="100%" height="100%" viewBox="0 0 3000 828" version="1.1" xmlns="http://www.w3.org/2000/svg" xmlns:xlink="http://www.w3.org/1999/xlink" xml:space="preserve" xmlns:serif="http://www.serif.com/" style="fill-rule:evenodd;clip-rule:evenodd;stroke-linejoin:round;stroke-miterlimit:2;">
    <g transform="matrix(3.32594,0,0,3.3253,0,0)">
        <path d="M97.432,0C99.641,0 101.432,1.791 101.432,4L101.432,103.664C101.432,119.867 100.936,132.349 99.944,141.112C98.621,151.363 96.224,159.381 92.752,165.168C89.28,170.789 84.237,174.84 77.624,177.32C71.011,179.8 62,181.04 50.592,181.04C36.043,181.04 25.131,179.056 17.856,175.088C10.747,170.955 5.869,164.176 3.224,154.752C1.075,146.816 0,134.664 0,118.296L0,118.08C0,115.871 1.791,114.08 4,114.08L26.752,114.08C28.961,114.08 30.752,115.871 30.752,118.08L30.752,120.28C30.752,131.192 31.331,139.211 32.488,144.336C33.48,149.627 35.299,153.264 37.944,155.248C40.755,157.067 44.971,157.976 50.592,157.976C55.056,157.976 58.363,157.48 60.512,156.488C63.157,155.331 65.141,153.016 66.464,149.544C67.952,146.072 69.027,140.864 69.688,133.92C70.184,127.307 70.432,117.883 70.432,105.648L70.432,4C70.432,1.791 72.223,0 74.432,0L97.432,0Z" style="fill:rgb(28,30,133);fill-rule:nonzero;"/>
    </g>
    <g transform="matrix(3.32594,0,0,3.3253,0,0)">
        <path d="M224.296,112.593C224.296,129.953 222.974,143.179 220.328,152.273C217.352,162.523 212.062,169.881 204.456,174.345C196.851,178.809 185.774,181.041 171.224,181.041C157.171,181.041 146.342,178.809 138.736,174.345C131.131,169.881 125.758,162.523 122.616,152.273C119.64,143.014 118.152,129.787 118.152,112.593C118.152,95.233 119.558,81.923 122.368,72.665C125.51,62.579 130.883,55.304 138.488,50.841C146.094,46.377 157.006,44.145 171.224,44.145C185.608,44.145 196.603,46.377 204.208,50.841C211.814,55.304 217.104,62.579 220.08,72.665C222.891,81.923 224.296,95.233 224.296,112.593ZM195.776,112.593C195.776,100.689 195.28,91.843 194.288,86.057C192.966,78.947 190.568,73.822 187.096,70.681C183.624,67.374 178.334,65.721 171.224,65.721C164.115,65.721 158.824,67.291 155.352,70.433C151.88,73.574 149.483,78.699 148.16,85.809C147.168,91.76 146.672,100.771 146.672,112.841C146.672,124.745 147.168,133.59 148.16,139.377C149.483,146.486 151.88,151.611 155.352,154.753C158.824,157.894 164.115,159.465 171.224,159.465C178.334,159.465 183.624,157.894 187.096,154.753C190.568,151.446 192.966,146.238 194.288,139.129C195.28,133.342 195.776,124.497 195.776,112.593Z" style="fill:rgb(28,30,133);fill-rule:nonzero;"/>
    </g>
    <g transform="matrix(3.32594,0,0,3.3253,0,0)">
        <path d="M307.668,62.96L307.668,50.376C307.668,48.167 305.877,46.376 303.668,46.376L290.34,46.376C288.131,46.376 286.34,44.586 286.34,42.377L286.339,16.152C286.338,13.943 284.548,12.152 282.339,12.152L261.328,12.152C259.119,12.152 257.328,13.937 257.328,16.146C257.328,24.409 257.326,36.263 257.325,42.382C257.324,44.591 255.54,46.376 253.331,46.376L239.497,46.376C237.288,46.376 235.5,48.167 235.5,50.376L235.5,62.96C235.5,65.17 237.291,66.96 239.5,66.96L253.324,66.96C255.533,66.96 257.324,68.751 257.324,70.96L257.324,144.584C257.324,153.182 258.316,159.878 260.3,164.672C262.449,169.467 265.673,172.939 269.972,175.088C273.609,177.072 278.652,178.23 285.1,178.56C289.233,178.891 302.744,178.974 312.498,178.808C313.697,178.808 314.668,177.837 314.668,176.639L314.668,159.154C314.668,157.956 313.697,156.984 312.498,156.984C306.712,157.15 296.508,157.067 294.524,156.736C291.548,156.406 289.399,155.248 288.076,153.264C286.919,151.115 286.34,147.56 286.34,142.6L286.34,70.96C286.34,68.751 288.131,66.96 290.34,66.96L303.668,66.96C305.877,66.96 307.668,65.17 307.668,62.96Z" style="fill:rgb(28,30,133);fill-rule:nonzero;"/>
    </g>
    <g transform="matrix(3.32594,0,0,3.3253,0,0)">
        <path d="M362.195,118.048C359.986,118.048 358.195,119.839 358.195,122.048L358.195,174.808C358.195,177.017 356.404,178.808 354.195,178.808L331.195,178.808C328.986,178.808 327.195,177.017 327.195,174.808L327.195,4.248C327.195,2.039 328.986,0.248 331.195,0.248L384.483,0.248C398.702,0.248 409.449,1.653 416.723,4.464C424.99,7.771 430.942,13.557 434.579,21.824C438.382,30.091 440.283,42.243 440.283,58.28C440.283,74.813 438.382,87.379 434.579,95.976C430.777,104.408 424.742,110.36 416.475,113.832C409.201,116.643 398.537,118.048 384.483,118.048L362.195,118.048ZM358.195,91.48C358.195,93.689 359.986,95.48 362.195,95.48L382.251,95.48C390.022,95.48 395.643,94.653 399.115,93C403.249,91.016 406.142,87.461 407.795,82.336C409.614,77.045 410.523,69.027 410.523,58.28C410.523,48.029 409.614,40.424 407.795,35.464C406.142,30.339 403.249,26.949 399.115,25.296C395.478,23.643 389.857,22.816 382.251,22.816L362.195,22.816C359.986,22.816 358.195,24.607 358.195,26.816L358.195,91.48Z" style="fill:rgb(28,30,133);fill-rule:nonzero;"/>
    </g>
    <g transform="matrix(3.32594,0,0,3.3253,0,0)">
        <path d="M546.36,73.857C546.761,75.955 545.317,77.927 543.215,78.311L525.431,81.56C523.137,81.979 521.004,80.347 520.544,78.061C519.991,75.317 519.21,73.105 518.202,71.425C516.879,68.779 514.73,66.961 511.754,65.969C508.778,64.811 504.479,64.233 498.858,64.233C492.74,64.233 488.194,64.894 485.218,66.217C482.407,67.374 480.506,69.358 479.514,72.169C478.687,74.318 478.274,77.873 478.274,82.833C478.274,87.131 478.77,90.438 479.762,92.753C480.919,94.902 482.986,96.555 485.962,97.713C489.103,98.87 494.063,99.945 500.842,100.937C513.903,102.094 523.575,103.747 529.858,105.897C537.132,108.377 542.258,112.262 545.234,117.553C548.375,122.843 549.946,130.697 549.946,141.113C549.946,150.702 548.458,158.307 545.482,163.929C542.341,169.881 537.05,174.262 529.61,177.073C522.335,179.718 512.167,181.041 499.106,181.041C487.037,180.875 477.53,179.553 470.586,177.073C463.642,174.427 458.434,170.459 454.962,165.169C452.456,161.132 450.712,155.981 449.73,149.718C449.408,147.664 450.827,145.774 452.869,145.385L470.965,141.938C473.287,141.496 475.461,143.157 475.848,145.488C476.405,148.835 477.213,151.51 478.274,153.513C479.762,156.158 482.077,158.142 485.218,159.465C488.525,160.622 493.236,161.201 499.354,161.201C505.967,161.201 510.844,160.539 513.986,159.217C517.127,157.894 519.276,155.745 520.434,152.769C521.26,150.454 521.674,146.734 521.674,141.609C521.674,137.145 520.847,133.755 519.194,131.441C517.706,129.126 514.978,127.307 511.01,125.985C507.703,124.827 501.916,123.67 493.65,122.513C481.25,121.19 471.991,119.206 465.874,116.561C459.756,113.75 455.54,109.617 453.226,104.161C451.242,99.531 450.25,92.587 450.25,83.329C450.25,73.409 451.82,65.638 454.962,60.017C458.103,54.395 463.146,50.344 470.09,47.865C477.034,45.385 486.375,44.145 498.114,44.145C509.191,44.145 517.954,45.137 524.402,47.121C531.18,49.27 536.306,52.742 539.778,57.536C542.865,61.606 545.059,67.047 546.36,73.857Z" style="fill:rgb(28,30,133);fill-rule:nonzero;"/>
    </g>
    <g transform="matrix(3.32594,0,0,3.3253,0,0)">
        <path d="M659.36,46.375C661.569,46.375 663.36,48.165 663.36,50.375L663.36,190.343C663.36,206.876 661.789,219.194 658.648,227.295C655.506,235.562 650.05,241.266 642.28,244.407C635.336,247.218 624.837,248.623 610.784,248.623C598.714,248.623 589.456,247.3 583.008,244.655C575.898,241.679 570.773,236.719 567.632,229.775C564.833,223.734 563.215,215.331 562.779,204.564C562.688,202.336 564.495,200.511 566.724,200.511L587.528,200.511C589.702,200.511 591.47,202.249 591.58,204.421C591.864,209.98 592.478,214.381 593.424,217.623C594.581,221.591 596.565,224.402 599.376,226.055C602.352,227.708 606.65,228.535 612.272,228.535C619.216,228.535 624.341,227.626 627.648,225.807C631.12,223.658 633.517,219.938 634.84,214.647C636.328,209.356 637.072,201.255 637.072,190.343L637.072,153.818C637.072,153.525 636.834,153.303 636.542,153.303C636.277,153.303 636.054,153.497 636.006,153.758C635.221,158.02 631.447,165.069 630,166.999C628.5,168.999 623.762,173.847 618.968,175.831C614.669,177.65 609.048,178.642 602.104,178.807C591.192,178.972 583.173,177.65 578.048,174.839C572.096,171.698 567.962,166.076 565.648,157.975C563.333,149.708 562.176,137.308 562.176,120.775L562.176,50.375C562.176,48.166 563.967,46.375 566.176,46.375L587.192,46.375C589.401,46.375 591.192,48.166 591.192,50.375L591.192,115.815C591.192,127.719 591.605,136.234 592.432,141.359C593.589,147.146 595.573,151.114 598.384,153.263C601.36,155.247 605.989,156.239 612.272,156.239C618.554,156.239 623.266,154.999 626.408,152.519C629.549,149.874 631.698,145.41 632.856,139.127C633.848,133.671 634.344,125.156 634.344,113.583L634.344,50.375C634.344,48.166 636.135,46.375 638.344,46.375L659.36,46.375Z" style="fill:rgb(28,30,133);fill-rule:nonzero;"/>
    </g>
    <g transform="matrix(3.32594,0,0,3.3253,0,0)">
        <path d="M784.07,83.803C784.365,85.899 782.904,87.819 780.816,88.17L762.079,91.322C759.847,91.697 757.762,90.144 757.36,87.917C755.963,80.178 753.778,74.68 750.805,71.425C747.498,67.622 741.877,65.803 733.941,65.969C726.997,65.969 721.706,67.622 718.069,70.929C714.597,74.235 712.2,79.361 710.877,86.305C709.72,92.422 709.141,101.185 709.141,112.593C709.141,124.001 709.72,132.763 710.877,138.881C712.2,145.99 714.597,151.198 718.069,154.505C721.706,157.811 726.997,159.465 733.941,159.465C741.877,159.63 747.498,157.811 750.805,154.009C753.774,150.616 755.956,145.048 757.354,137.305C757.758,135.064 759.868,133.509 762.109,133.907L780.792,137.224C782.889,137.597 784.334,139.548 784.006,141.652C782.632,150.449 780.493,157.461 777.589,162.689C773.952,169.137 768.661,173.849 761.717,176.825C754.773,179.635 745.432,181.041 733.693,181.041C719.64,181.041 708.81,178.809 701.205,174.345C693.6,169.881 688.226,162.606 685.085,152.521C682.109,143.097 680.621,129.787 680.621,112.593C680.621,95.398 682.109,82.171 685.085,72.913C688.392,62.662 693.848,55.304 701.453,50.841C709.058,46.377 719.805,44.145 733.693,44.145C745.432,44.145 754.773,45.633 761.717,48.609C768.661,51.419 773.952,56.048 777.589,62.496C780.647,67.739 782.807,74.841 784.07,83.803Z" style="fill:rgb(28,30,133);fill-rule:nonzero;"/>
    </g>
    <g transform="matrix(3.32594,0,0,3.3253,0,0)">
        <path d="M901.473,174.808C901.473,177.017 899.682,178.808 897.473,178.808L876.705,178.808C874.496,178.808 872.705,177.017 872.705,174.808L872.705,107.88C872.705,95.811 872.209,87.213 871.217,82.088C870.225,76.136 868.241,72.168 865.265,70.184C862.454,68.035 857.825,67.043 851.377,67.208C845.094,67.208 840.382,68.531 837.241,71.176C834.265,73.821 832.198,78.285 831.041,84.568C830.049,89.859 829.553,98.208 829.553,109.616L829.553,174.808C829.553,177.017 827.762,178.808 825.553,178.808L804.289,178.808C802.08,178.808 800.289,177.017 800.289,174.808L800.289,4.248C800.289,2.039 802.08,0.248 804.289,0.248L824.919,0.248C827.181,0.248 828.993,2.123 828.916,4.384L826.591,72.746C826.583,72.972 826.765,73.16 826.991,73.16C827.183,73.16 827.348,73.023 827.385,72.836C828.871,65.388 830.999,59.626 833.769,55.552C836.58,51.419 840.382,48.443 845.177,46.624C849.476,44.971 855.097,44.144 862.041,44.144C872.788,43.979 880.806,45.384 886.097,48.36C891.884,51.501 895.852,57.205 898.001,65.472C900.316,73.573 901.473,85.891 901.473,102.424L901.473,174.808Z" style="fill:rgb(28,30,133);fill-rule:nonzero;"/>
    </g>
</svg>
