<?xml version="1.0" encoding="UTF-8" standalone="no"?>
<!DOCTYPE svg PUBLIC "-//W3C//DTD SVG 1.1//EN" "http://www.w3.org/Graphics/SVG/1.1/DTD/svg11.dtd">
<svg width="100%" height="100%" viewBox="0 0 3000 689" version="1.1" xmlns="http://www.w3.org/2000/svg" xmlns:xlink="http://www.w3.org/1999/xlink" xml:space="preserve" xmlns:serif="http://www.serif.com/" style="fill-rule:evenodd;clip-rule:evenodd;stroke-linejoin:round;stroke-miterlimit:2;">
    <g transform="matrix(2.76753,0,0,2.76707,0,0)">
        <path d="M279.432,0C281.641,0 283.432,1.791 283.432,4L283.432,103.664C283.432,119.867 282.936,132.349 281.944,141.112C280.621,151.363 278.224,159.381 274.752,165.168C271.28,170.789 266.237,174.84 259.624,177.32C253.011,179.8 244,181.04 232.592,181.04C218.043,181.04 207.131,179.056 199.856,175.088C192.747,170.955 187.869,164.176 185.224,154.752C183.075,146.816 182,134.664 182,118.296L182,118.08C182,115.871 183.791,114.08 186,114.08L208.752,114.08C210.961,114.08 212.752,115.871 212.752,118.08L212.752,120.28C212.752,131.192 213.331,139.211 214.488,144.336C215.48,149.627 217.299,153.264 219.944,155.248C222.755,157.067 226.971,157.976 232.592,157.976C237.056,157.976 240.363,157.48 242.512,156.488C245.157,155.331 247.141,153.016 248.464,149.544C249.952,146.072 251.027,140.864 251.688,133.92C252.184,127.307 252.432,117.883 252.432,105.648L252.432,4C252.432,1.791 254.223,0 256.432,0L279.432,0Z" style="fill:rgb(28,30,133);fill-rule:nonzero;"/>
    </g>
    <g transform="matrix(2.76753,0,0,2.76707,0,0)">
        <path d="M406.296,112.593C406.296,129.953 404.974,143.179 402.328,152.273C399.352,162.523 394.062,169.881 386.456,174.345C378.851,178.809 367.774,181.041 353.224,181.041C339.171,181.041 328.342,178.809 320.736,174.345C313.131,169.881 307.758,162.523 304.616,152.273C301.64,143.014 300.152,129.787 300.152,112.593C300.152,95.233 301.558,81.923 304.368,72.665C307.51,62.579 312.883,55.304 320.488,50.841C328.094,46.377 339.006,44.145 353.224,44.145C367.608,44.145 378.603,46.377 386.208,50.841C393.814,55.304 399.104,62.579 402.08,72.665C404.891,81.923 406.296,95.233 406.296,112.593ZM377.776,112.593C377.776,100.689 377.28,91.843 376.288,86.057C374.966,78.947 372.568,73.822 369.096,70.681C365.624,67.374 360.334,65.721 353.224,65.721C346.115,65.721 340.824,67.291 337.352,70.433C333.88,73.574 331.483,78.699 330.16,85.809C329.168,91.76 328.672,100.771 328.672,112.841C328.672,124.745 329.168,133.59 330.16,139.377C331.483,146.486 333.88,151.611 337.352,154.753C340.824,157.894 346.115,159.465 353.224,159.465C360.334,159.465 365.624,157.894 369.096,154.753C372.568,151.446 374.966,146.238 376.288,139.129C377.28,133.342 377.776,124.497 377.776,112.593Z" style="fill:rgb(28,30,133);fill-rule:nonzero;"/>
    </g>
    <g transform="matrix(2.76753,0,0,2.76707,0,0)">
        <path d="M489.668,62.96L489.668,50.376C489.668,48.167 487.877,46.376 485.668,46.376L472.34,46.376C470.131,46.376 468.34,44.586 468.34,42.377L468.339,16.152C468.338,13.943 466.548,12.152 464.339,12.152L443.328,12.152C441.119,12.152 439.328,13.937 439.328,16.146C439.328,24.409 439.326,36.263 439.325,42.382C439.324,44.591 437.54,46.376 435.331,46.376L421.497,46.376C419.288,46.376 417.5,48.167 417.5,50.376L417.5,62.96C417.5,65.17 419.291,66.96 421.5,66.96L435.324,66.96C437.533,66.96 439.324,68.751 439.324,70.96L439.324,144.584C439.324,153.182 440.316,159.878 442.3,164.672C444.449,169.467 447.673,172.939 451.972,175.088C455.609,177.072 460.652,178.23 467.1,178.56C471.233,178.891 484.744,178.974 494.498,178.808C495.697,178.808 496.668,177.837 496.668,176.639L496.668,159.154C496.668,157.956 495.697,156.984 494.498,156.984C488.712,157.15 478.508,157.067 476.524,156.736C473.548,156.406 471.399,155.248 470.076,153.264C468.919,151.115 468.34,147.56 468.34,142.6L468.34,70.96C468.34,68.751 470.131,66.96 472.34,66.96L485.668,66.96C487.877,66.96 489.668,65.17 489.668,62.96Z" style="fill:rgb(28,30,133);fill-rule:nonzero;"/>
    </g>
    <g transform="matrix(2.76753,0,0,2.76707,0,0)">
        <path d="M544.195,118.048C541.986,118.048 540.195,119.839 540.195,122.048L540.195,174.808C540.195,177.017 538.404,178.808 536.195,178.808L513.195,178.808C510.986,178.808 509.195,177.017 509.195,174.808L509.195,4.248C509.195,2.039 510.986,0.248 513.195,0.248L566.483,0.248C580.702,0.248 591.449,1.653 598.723,4.464C606.99,7.771 612.942,13.557 616.579,21.824C620.382,30.091 622.283,42.243 622.283,58.28C622.283,74.813 620.382,87.379 616.579,95.976C612.777,104.408 606.742,110.36 598.475,113.832C591.201,116.643 580.537,118.048 566.483,118.048L544.195,118.048ZM540.195,91.48C540.195,93.689 541.986,95.48 544.195,95.48L564.251,95.48C572.022,95.48 577.643,94.653 581.115,93C585.249,91.016 588.142,87.461 589.795,82.336C591.614,77.045 592.523,69.027 592.523,58.28C592.523,48.029 591.614,40.424 589.795,35.464C588.142,30.339 585.249,26.949 581.115,25.296C577.478,23.643 571.857,22.816 564.251,22.816L544.195,22.816C541.986,22.816 540.195,24.607 540.195,26.816L540.195,91.48Z" style="fill:rgb(28,30,133);fill-rule:nonzero;"/>
    </g>
    <g transform="matrix(2.76753,0,0,2.76707,0,0)">
        <path d="M728.36,73.857C728.761,75.955 727.317,77.927 725.215,78.311L707.431,81.56C705.137,81.979 703.004,80.347 702.544,78.061C701.991,75.317 701.21,73.105 700.202,71.425C698.879,68.779 696.73,66.961 693.754,65.969C690.778,64.811 686.479,64.233 680.858,64.233C674.74,64.233 670.194,64.894 667.218,66.217C664.407,67.374 662.506,69.358 661.514,72.169C660.687,74.318 660.274,77.873 660.274,82.833C660.274,87.131 660.77,90.438 661.762,92.753C662.919,94.902 664.986,96.555 667.962,97.713C671.103,98.87 676.063,99.945 682.842,100.937C695.903,102.094 705.575,103.747 711.858,105.897C719.132,108.377 724.258,112.262 727.234,117.553C730.375,122.843 731.946,130.697 731.946,141.113C731.946,150.702 730.458,158.307 727.482,163.929C724.341,169.881 719.05,174.262 711.61,177.073C704.335,179.718 694.167,181.041 681.106,181.041C669.037,180.875 659.53,179.553 652.586,177.073C645.642,174.427 640.434,170.459 636.962,165.169C634.456,161.132 632.712,155.981 631.73,149.718C631.408,147.664 632.827,145.774 634.869,145.385L652.965,141.938C655.287,141.496 657.461,143.157 657.848,145.488C658.405,148.835 659.213,151.51 660.274,153.513C661.762,156.158 664.077,158.142 667.218,159.465C670.525,160.622 675.236,161.201 681.354,161.201C687.967,161.201 692.844,160.539 695.986,159.217C699.127,157.894 701.276,155.745 702.434,152.769C703.26,150.454 703.674,146.734 703.674,141.609C703.674,137.145 702.847,133.755 701.194,131.441C699.706,129.126 696.978,127.307 693.01,125.985C689.703,124.827 683.916,123.67 675.65,122.513C663.25,121.19 653.991,119.206 647.874,116.561C641.756,113.75 637.54,109.617 635.226,104.161C633.242,99.531 632.25,92.587 632.25,83.329C632.25,73.409 633.82,65.638 636.962,60.017C640.103,54.395 645.146,50.344 652.09,47.865C659.034,45.385 668.375,44.145 680.114,44.145C691.191,44.145 699.954,45.137 706.402,47.121C713.18,49.27 718.306,52.742 721.778,57.536C724.865,61.606 727.059,67.047 728.36,73.857Z" style="fill:rgb(28,30,133);fill-rule:nonzero;"/>
    </g>
    <g transform="matrix(2.76753,0,0,2.76707,0,0)">
        <path d="M841.36,46.375C843.569,46.375 845.36,48.165 845.36,50.375L845.36,190.343C845.36,206.876 843.789,219.194 840.648,227.295C837.506,235.562 832.05,241.266 824.28,244.407C817.336,247.218 806.837,248.623 792.784,248.623C780.714,248.623 771.456,247.3 765.008,244.655C757.898,241.679 752.773,236.719 749.632,229.775C746.833,223.734 745.215,215.331 744.779,204.564C744.688,202.336 746.495,200.511 748.724,200.511L769.528,200.511C771.702,200.511 773.47,202.249 773.58,204.421C773.864,209.98 774.478,214.381 775.424,217.623C776.581,221.591 778.565,224.402 781.376,226.055C784.352,227.708 788.65,228.535 794.272,228.535C801.216,228.535 806.341,227.626 809.648,225.807C813.12,223.658 815.517,219.938 816.84,214.647C818.328,209.356 819.072,201.255 819.072,190.343L819.072,153.818C819.072,153.525 818.834,153.303 818.542,153.303C818.277,153.303 818.054,153.497 818.006,153.758C817.221,158.02 813.447,165.069 812,166.999C810.5,168.999 805.762,173.847 800.968,175.831C796.669,177.65 791.048,178.642 784.104,178.807C773.192,178.972 765.173,177.65 760.048,174.839C754.096,171.698 749.962,166.076 747.648,157.975C745.333,149.708 744.176,137.308 744.176,120.775L744.176,50.375C744.176,48.166 745.967,46.375 748.176,46.375L769.192,46.375C771.401,46.375 773.192,48.166 773.192,50.375L773.192,115.815C773.192,127.719 773.605,136.234 774.432,141.359C775.589,147.146 777.573,151.114 780.384,153.263C783.36,155.247 787.989,156.239 794.272,156.239C800.554,156.239 805.266,154.999 808.408,152.519C811.549,149.874 813.698,145.41 814.856,139.127C815.848,133.671 816.344,125.156 816.344,113.583L816.344,50.375C816.344,48.166 818.135,46.375 820.344,46.375L841.36,46.375Z" style="fill:rgb(28,30,133);fill-rule:nonzero;"/>
    </g>
    <g transform="matrix(2.76753,0,0,2.76707,0,0)">
        <path d="M966.07,83.803C966.365,85.899 964.904,87.819 962.816,88.17L944.079,91.322C941.847,91.697 939.762,90.144 939.36,87.917C937.963,80.178 935.778,74.68 932.805,71.425C929.498,67.622 923.877,65.803 915.941,65.969C908.997,65.969 903.706,67.622 900.069,70.929C896.597,74.235 894.2,79.361 892.877,86.305C891.72,92.422 891.141,101.185 891.141,112.593C891.141,124.001 891.72,132.763 892.877,138.881C894.2,145.99 896.597,151.198 900.069,154.505C903.706,157.811 908.997,159.465 915.941,159.465C923.877,159.63 929.498,157.811 932.805,154.009C935.774,150.616 937.956,145.048 939.354,137.305C939.758,135.064 941.868,133.509 944.109,133.907L962.792,137.224C964.889,137.597 966.334,139.548 966.006,141.652C964.632,150.449 962.493,157.461 959.589,162.689C955.952,169.137 950.661,173.849 943.717,176.825C936.773,179.635 927.432,181.041 915.693,181.041C901.64,181.041 890.81,178.809 883.205,174.345C875.6,169.881 870.226,162.606 867.085,152.521C864.109,143.097 862.621,129.787 862.621,112.593C862.621,95.398 864.109,82.171 867.085,72.913C870.392,62.662 875.848,55.304 883.453,50.841C891.058,46.377 901.805,44.145 915.693,44.145C927.432,44.145 936.773,45.633 943.717,48.609C950.661,51.419 955.952,56.048 959.589,62.496C962.647,67.739 964.807,74.841 966.07,83.803Z" style="fill:rgb(28,30,133);fill-rule:nonzero;"/>
    </g>
    <g transform="matrix(2.76753,0,0,2.76707,0,0)">
        <path d="M1083.47,174.808C1083.47,177.017 1081.68,178.808 1079.47,178.808L1058.71,178.808C1056.5,178.808 1054.71,177.017 1054.71,174.808L1054.71,107.88C1054.71,95.811 1054.21,87.213 1053.22,82.088C1052.23,76.136 1050.24,72.168 1047.27,70.184C1044.45,68.035 1039.83,67.043 1033.38,67.208C1027.09,67.208 1022.38,68.531 1019.24,71.176C1016.27,73.821 1014.2,78.285 1013.04,84.568C1012.05,89.859 1011.55,98.208 1011.55,109.616L1011.55,174.808C1011.55,177.017 1009.76,178.808 1007.55,178.808L986.289,178.808C984.08,178.808 982.289,177.017 982.289,174.808L982.289,4.248C982.289,2.039 984.08,0.248 986.289,0.248L1006.92,0.248C1009.18,0.248 1010.99,2.123 1010.92,4.384L1008.59,72.746C1008.58,72.972 1008.76,73.16 1008.99,73.16C1009.18,73.16 1009.35,73.023 1009.39,72.836C1010.87,65.388 1013,59.626 1015.77,55.552C1018.58,51.419 1022.38,48.443 1027.18,46.624C1031.48,44.971 1037.1,44.144 1044.04,44.144C1054.79,43.979 1062.81,45.384 1068.1,48.36C1073.88,51.501 1077.85,57.205 1080,65.472C1082.32,73.573 1083.47,85.891 1083.47,102.424L1083.47,174.808Z" style="fill:rgb(28,30,133);fill-rule:nonzero;"/>
    </g>
    <g transform="matrix(2.76753,0,0,2.76707,0,0)">
        <path d="M30.25,96.85C30.25,93.343 33.101,90.499 36.618,90.499L54.132,90.499C57.649,90.499 60.5,93.343 60.5,96.85L60.5,114.315C60.5,117.823 57.649,120.666 54.132,120.666L36.618,120.666C33.101,120.666 30.25,117.823 30.25,114.315L30.25,96.85Z" style="fill:rgb(28,30,133);fill-rule:nonzero;"/>
    </g>
    <g transform="matrix(2.76753,0,0,2.76707,0,0)">
        <path d="M30.25,157.184C30.25,153.676 33.101,150.833 36.618,150.833L54.132,150.833C57.649,150.833 60.5,153.676 60.5,157.184L60.5,174.648C60.5,178.156 57.649,180.999 54.132,180.999L36.618,180.999C33.101,180.999 30.25,178.156 30.25,174.648L30.25,157.184Z" style="fill:rgb(28,30,133);fill-rule:nonzero;"/>
    </g>
    <g transform="matrix(2.76753,0,0,2.76707,0,0)">
        <path d="M30.25,36.517C30.25,33.009 33.101,30.166 36.618,30.166L54.132,30.166C57.649,30.166 60.5,33.009 60.5,36.517L60.5,53.982C60.5,57.489 57.649,60.333 54.132,60.333L36.618,60.333C33.101,60.333 30.25,57.489 30.25,53.982L30.25,36.517Z" style="fill:rgb(28,30,133);fill-rule:nonzero;"/>
    </g>
    <g transform="matrix(2.76753,0,0,2.76707,0,0)">
        <path d="M90.75,96.85C90.75,93.343 93.601,90.499 97.118,90.499L114.632,90.499C118.149,90.499 121,93.343 121,96.85L121,114.315C121,117.823 118.149,120.666 114.632,120.666L97.118,120.666C93.601,120.666 90.75,117.823 90.75,114.315L90.75,96.85Z" style="fill:rgb(28,30,133);fill-rule:nonzero;"/>
    </g>
    <g transform="matrix(2.76753,0,0,2.76707,0,0)">
        <path d="M0,66.684C0,63.177 2.851,60.333 6.368,60.333L23.882,60.333C27.399,60.333 30.25,63.177 30.25,66.684L30.25,84.149C30.25,87.657 27.399,90.5 23.882,90.5L6.368,90.5C2.851,90.5 0,87.657 0,84.149L0,66.684Z" style="fill:rgb(253,150,201);fill-rule:nonzero;"/>
    </g>
    <g transform="matrix(2.76753,0,0,2.76707,0,0)">
        <path d="M60.5,127.018C60.5,123.51 63.351,120.667 66.868,120.667L84.382,120.667C87.899,120.667 90.75,123.51 90.75,127.018L90.75,144.482C90.75,147.99 87.899,150.833 84.382,150.833L66.868,150.833C63.351,150.833 60.5,147.99 60.5,144.482L60.5,127.018Z" style="fill:rgb(253,150,201);fill-rule:nonzero;"/>
    </g>
    <g transform="matrix(2.76753,0,0,2.76707,0,0)">
        <path d="M60.5,6.351C60.5,2.843 63.351,0 66.868,0L84.382,0C87.899,0 90.75,2.843 90.75,6.351L90.75,23.816C90.75,27.323 87.899,30.167 84.382,30.167L66.868,30.167C63.351,30.167 60.5,27.323 60.5,23.816L60.5,6.351Z" style="fill:rgb(253,150,201);fill-rule:nonzero;"/>
    </g>
    <g transform="matrix(2.76753,0,0,2.76707,0,0)">
        <path d="M60.5,66.684C60.5,63.177 63.351,60.333 66.868,60.333L84.382,60.333C87.899,60.333 90.75,63.177 90.75,66.684L90.75,84.149C90.75,87.657 87.899,90.5 84.382,90.5L66.868,90.5C63.351,90.5 60.5,87.657 60.5,84.149L60.5,66.684Z" style="fill:rgb(253,150,201);fill-rule:nonzero;"/>
    </g>
</svg>
