<?xml version="1.0" encoding="UTF-8" standalone="no"?>
<!DOCTYPE svg PUBLIC "-//W3C//DTD SVG 1.1//EN" "http://www.w3.org/Graphics/SVG/1.1/DTD/svg11.dtd">
<svg width="100%" height="100%" viewBox="0 0 1500 1500" version="1.1" xmlns="http://www.w3.org/2000/svg" xmlns:xlink="http://www.w3.org/1999/xlink" xml:space="preserve" xmlns:serif="http://www.serif.com/" style="fill-rule:evenodd;clip-rule:evenodd;stroke-linejoin:round;stroke-miterlimit:2;">
    <g transform="matrix(5.85938,0,0,5.85938,0,0)">
        <rect x="0" y="0" width="256" height="256" style="fill:rgb(28,30,133);"/>
    </g>
    <g transform="matrix(5.85938,0,0,5.85938,0,0)">
        <path d="M85.5,111.158C85.5,108.677 87.503,106.667 89.974,106.667L102.276,106.667C104.747,106.667 106.75,108.677 106.75,111.158L106.75,123.509C106.75,125.989 104.747,128 102.276,128L89.974,128C87.503,128 85.5,125.989 85.5,123.509L85.5,111.158Z" style="fill:rgb(253,150,201);fill-rule:nonzero;"/>
    </g>
    <g transform="matrix(5.85938,0,0,5.85938,0,0)">
        <path d="M106.75,132.491C106.75,130.011 108.753,128 111.224,128L123.526,128C125.997,128 128,130.011 128,132.491L128,144.842C128,147.323 125.997,149.333 123.526,149.333L111.224,149.333C108.753,149.333 106.75,147.323 106.75,144.842L106.75,132.491Z" style="fill:rgb(255,242,245);fill-rule:nonzero;"/>
    </g>
    <g transform="matrix(5.85938,0,0,5.85938,0,0)">
        <path d="M128,153.825C128,151.344 130.003,149.333 132.474,149.333L144.776,149.333C147.247,149.333 149.25,151.344 149.25,153.825L149.25,166.175C149.25,168.656 147.247,170.667 144.776,170.667L132.474,170.667C130.003,170.667 128,168.656 128,166.175L128,153.825Z" style="fill:rgb(253,150,201);fill-rule:nonzero;"/>
    </g>
    <g transform="matrix(5.85938,0,0,5.85938,0,0)">
        <path d="M106.75,175.158C106.75,172.677 108.753,170.667 111.224,170.667L123.526,170.667C125.997,170.667 128,172.677 128,175.158L128,187.509C128,189.989 125.997,192 123.526,192L111.224,192C108.753,192 106.75,189.989 106.75,187.509L106.75,175.158Z" style="fill:rgb(255,242,245);fill-rule:nonzero;"/>
    </g>
    <g transform="matrix(5.85938,0,0,5.85938,0,0)">
        <path d="M106.75,89.825C106.75,87.344 108.753,85.333 111.224,85.333L123.526,85.333C125.997,85.333 128,87.344 128,89.825L128,102.175C128,104.656 125.997,106.667 123.526,106.667L111.224,106.667C108.753,106.667 106.75,104.656 106.75,102.175L106.75,89.825Z" style="fill:rgb(255,242,245);fill-rule:nonzero;"/>
    </g>
    <g transform="matrix(5.85938,0,0,5.85938,0,0)">
        <path d="M128,68.491C128,66.011 130.003,64 132.474,64L144.776,64C147.247,64 149.25,66.011 149.25,68.491L149.25,80.842C149.25,83.323 147.247,85.333 144.776,85.333L132.474,85.333C130.003,85.333 128,83.323 128,80.842L128,68.491Z" style="fill:rgb(253,150,201);fill-rule:nonzero;"/>
    </g>
    <g transform="matrix(5.85938,0,0,5.85938,0,0)">
        <path d="M128,111.158C128,108.677 130.003,106.667 132.474,106.667L144.776,106.667C147.247,106.667 149.25,108.677 149.25,111.158L149.25,123.509C149.25,125.989 147.247,128 144.776,128L132.474,128C130.003,128 128,125.989 128,123.509L128,111.158Z" style="fill:rgb(253,150,201);fill-rule:nonzero;"/>
    </g>
    <g transform="matrix(5.85938,0,0,5.85938,0,0)">
        <path d="M149.25,132.491C149.25,130.011 151.253,128 153.724,128L166.026,128C168.497,128 170.5,130.011 170.5,132.491L170.5,144.842C170.5,147.323 168.497,149.333 166.026,149.333L153.724,149.333C151.253,149.333 149.25,147.323 149.25,144.842L149.25,132.491Z" style="fill:rgb(255,242,245);fill-rule:nonzero;"/>
    </g>
</svg>
