<?xml version="1.0" encoding="UTF-8" standalone="no"?>
<!DOCTYPE svg PUBLIC "-//W3C//DTD SVG 1.1//EN" "http://www.w3.org/Graphics/SVG/1.1/DTD/svg11.dtd">
<svg width="100%" height="100%" viewBox="0 0 1000 1500" version="1.1" xmlns="http://www.w3.org/2000/svg" xmlns:xlink="http://www.w3.org/1999/xlink" xml:space="preserve" xmlns:serif="http://www.serif.com/" style="fill-rule:evenodd;clip-rule:evenodd;stroke-linejoin:round;stroke-miterlimit:2;">
    <g transform="matrix(5.05051,0,0,5.05051,0,0)">
        <path d="M0,109.421C0,103.666 4.666,99 10.421,99L39.079,99C44.834,99 49.5,103.666 49.5,109.421L49.5,138.079C49.5,143.834 44.834,148.5 39.079,148.5L10.421,148.5C4.666,148.5 0,143.834 0,138.079L0,109.421Z" style="fill:rgb(253,150,201);fill-rule:nonzero;"/>
    </g>
    <g transform="matrix(5.05051,0,0,5.05051,0,0)">
        <path d="M49.5,158.921C49.5,153.166 54.166,148.5 59.921,148.5L88.579,148.5C94.334,148.5 99,153.166 99,158.921L99,187.579C99,193.334 94.334,198 88.579,198L59.921,198C54.166,198 49.5,193.334 49.5,187.579L49.5,158.921Z" style="fill:rgb(28,30,133);fill-rule:nonzero;"/>
    </g>
    <g transform="matrix(5.05051,0,0,5.05051,0,0)">
        <path d="M99,208.421C99,202.666 103.666,198 109.421,198L138.079,198C143.834,198 148.5,202.666 148.5,208.421L148.5,237.079C148.5,242.834 143.834,247.5 138.079,247.5L109.421,247.5C103.666,247.5 99,242.834 99,237.079L99,208.421Z" style="fill:rgb(253,150,201);fill-rule:nonzero;"/>
    </g>
    <g transform="matrix(5.05051,0,0,5.05051,0,0)">
        <path d="M49.5,257.921C49.5,252.166 54.166,247.5 59.921,247.5L88.579,247.5C94.334,247.5 99,252.166 99,257.921L99,286.579C99,292.334 94.334,297 88.579,297L59.921,297C54.166,297 49.5,292.334 49.5,286.579L49.5,257.921Z" style="fill:rgb(28,30,133);fill-rule:nonzero;"/>
    </g>
    <g transform="matrix(5.05051,0,0,5.05051,0,0)">
        <path d="M49.5,59.921C49.5,54.166 54.166,49.5 59.921,49.5L88.579,49.5C94.334,49.5 99,54.166 99,59.921L99,88.579C99,94.334 94.334,99 88.579,99L59.921,99C54.166,99 49.5,94.334 49.5,88.579L49.5,59.921Z" style="fill:rgb(28,30,133);fill-rule:nonzero;"/>
    </g>
    <g transform="matrix(5.05051,0,0,5.05051,0,0)">
        <path d="M99,10.421C99,4.666 103.666,0 109.421,0L138.079,0C143.834,0 148.5,4.666 148.5,10.421L148.5,39.079C148.5,44.834 143.834,49.5 138.079,49.5L109.421,49.5C103.666,49.5 99,44.834 99,39.079L99,10.421Z" style="fill:rgb(253,150,201);fill-rule:nonzero;"/>
    </g>
    <g transform="matrix(5.05051,0,0,5.05051,0,0)">
        <path d="M99,109.421C99,103.666 103.666,99 109.421,99L138.079,99C143.834,99 148.5,103.666 148.5,109.421L148.5,138.079C148.5,143.834 143.834,148.5 138.079,148.5L109.421,148.5C103.666,148.5 99,143.834 99,138.079L99,109.421Z" style="fill:rgb(253,150,201);fill-rule:nonzero;"/>
    </g>
    <g transform="matrix(5.05051,0,0,5.05051,0,0)">
        <path d="M148.5,158.921C148.5,153.166 153.166,148.5 158.921,148.5L187.579,148.5C193.334,148.5 198,153.166 198,158.921L198,187.579C198,193.334 193.334,198 187.579,198L158.921,198C153.166,198 148.5,193.334 148.5,187.579L148.5,158.921Z" style="fill:rgb(28,30,133);fill-rule:nonzero;"/>
    </g>
</svg>
